<svg width="16" height="23" viewBox="0 0 16 23" fill="none" xmlns="http://www.w3.org/2000/svg">
<path opacity="0.35" d="M7.82089 0C3.50848 0 0 3.50848 0 7.82089C0 13.2411 7.82858 22.5 7.82858 22.5C7.82858 22.5 15.6418 12.9746 15.6418 7.82089C15.6418 3.50848 12.1334 0 7.82089 0ZM10.1806 10.1109C9.52995 10.7614 8.67549 11.0867 7.82089 11.0867C6.96643 11.0867 6.11169 10.7614 5.4613 10.1109C4.16011 8.8098 4.16011 6.69273 5.4613 5.39154C6.09137 4.7612 6.92949 4.41403 7.82089 4.41403C8.7123 4.41403 9.55028 4.76134 10.1806 5.39154C11.4818 6.69273 11.4818 8.8098 10.1806 10.1109Z" fill="#1C3988"/>
</svg>
